<?xml version="1.0" encoding="utf-8"?>
<!-- Generator: Adobe Illustrator 14.0.0, SVG Export Plug-In . SVG Version: 6.00 Build 43363)  -->
<!DOCTYPE svg PUBLIC "-//W3C//DTD SVG 1.1//EN" "http://www.w3.org/Graphics/SVG/1.1/DTD/svg11.dtd">
<svg version="1.1" id="Layer_1" xmlns="http://www.w3.org/2000/svg" xmlns:xlink="http://www.w3.org/1999/xlink" x="0px" y="0px"
	 width="720px" height="720px" viewBox="0 0 720 720" enable-background="new 0 0 720 720" xml:space="preserve">
<path d="M593.516,354.392c-1.752,0-3.419,0.358-4.98,0.918c-6.479-31.839-31.955-56.713-64.058-62.422
	c0.495-1.478,0.823-3.04,0.823-4.686c0-8.21-6.648-14.859-14.859-14.859c-8.21,0-14.859,6.648-14.859,14.859
	c0,1.646,0.328,3.208,0.824,4.686c-28.04,4.991-51.015,24.599-60.702,50.697h-16.442v11.481h-12.157v8.105H105.875v16.209h20.516
	v20.263h25.76v17.117h-25.76v49.705h46.824v-12.062h-25.803v-17.118h25.803V418.08h17.117v19.206h25.792v17.118h-25.792v12.062
	h46.824v-49.705h-25.771v-17.117h25.771v-20.263h169.948v8.105h12.157v11.481h16.737c9.688,26.046,32.398,45.717,60.407,50.697
	c-0.496,1.478-0.824,3.04-0.824,4.686c0,8.211,6.649,14.859,14.859,14.859c8.211,0,14.859-6.648,14.859-14.859
	c0-1.646-0.328-3.208-0.823-4.686c33.39-5.941,59.509-32.63,64.648-66.295c1.394,0.433,2.85,0.739,4.39,0.739
	c8.211,0,14.859-6.648,14.859-14.859C608.375,361.04,601.727,354.392,593.516,354.392z M554.628,398.662
	c4.622,4.643,4.622,12.157,0,16.79c-4.644,4.633-12.157,4.633-16.79,0l-27.396-27.396l-27.396,27.396
	c-4.622,4.644-12.136,4.644-16.789,0c-4.623-4.633-4.623-12.147,0-16.79l27.396-27.396l-27.386-27.385
	c-4.633-4.633-4.633-12.147-0.01-16.78c4.653-4.644,12.167-4.644,16.789,0l27.396,27.386l27.396-27.396
	c4.622-4.633,12.136-4.633,16.79,0.011c4.622,4.633,4.622,12.147,0,16.78l-27.396,27.396L554.628,398.662z"/>
</svg>
